<mxfile host="app.diagrams.net" agent="Mozilla/5.0 (Windows NT 10.0; Win64; x64) AppleWebKit/537.36 (KHTML, like Gecko) Chrome/141.0.0.0 Safari/537.36" version="28.2.8">
  <diagram name="Page-1" id="dqd7VLHA3TMb-Cpor6RY">
    <mxGraphModel dx="1426" dy="825" grid="1" gridSize="10" guides="1" tooltips="1" connect="1" arrows="1" fold="1" page="1" pageScale="1" pageWidth="827" pageHeight="1169" math="0" shadow="0">
      <root>
        <mxCell id="0" />
        <mxCell id="1" parent="0" />
        <mxCell id="aCBa3Tje2mZpSBNY9Ict-1" value="&lt;b&gt;&lt;font style=&quot;font-size: 17px;&quot;&gt;Core Features&lt;/font&gt;&lt;/b&gt;" style="rounded=0;whiteSpace=wrap;html=1;fillColor=#d5e8d4;strokeColor=#82b366;" vertex="1" parent="1">
          <mxGeometry x="50" y="200" width="220" height="60" as="geometry" />
        </mxCell>
        <mxCell id="aCBa3Tje2mZpSBNY9Ict-2" value="&lt;b&gt;&lt;font style=&quot;font-size: 17px;&quot;&gt;Secondary Features&lt;/font&gt;&lt;/b&gt;" style="rounded=0;whiteSpace=wrap;html=1;fillColor=#ffe6cc;strokeColor=#d79b00;" vertex="1" parent="1">
          <mxGeometry x="270" y="200" width="250" height="60" as="geometry" />
        </mxCell>
        <mxCell id="aCBa3Tje2mZpSBNY9Ict-3" value="&lt;div style=&quot;line-height: 100%;&quot;&gt;&lt;h1 style=&quot;box-sizing: border-box; margin: 10px 0px 0px; padding: 0px; border: 0px; font-variant-ligatures: no-common-ligatures; font-variant-numeric: inherit; font-variant-east-asian: inherit; font-variant-alternates: inherit; font-variant-position: inherit; font-variant-emoji: inherit; font-stretch: inherit; font-family: &amp;quot;Playfair Display&amp;quot;, serif; font-optical-sizing: inherit; font-size-adjust: inherit; font-kerning: inherit; font-feature-settings: inherit; font-variation-settings: inherit; vertical-align: initial; letter-spacing: 0.39px; color: rgb(15, 56, 80); background-color: rgb(255, 255, 255); line-height: 100%;&quot; class=&quot;title-lg&quot;&gt;&lt;font style=&quot;font-size: 17px; line-height: 100%;&quot;&gt;• AI Learning Companion&lt;/font&gt;&lt;/h1&gt;&lt;div&gt;&lt;font style=&quot;font-size: 15px; line-height: 100%;&quot;&gt;(Chat tutor, Summaries)&lt;/font&gt;&lt;/div&gt;&lt;div&gt;&lt;font&gt;&lt;h1 style=&quot;font-size: 17px; box-sizing: border-box; margin: 10px 0px 0px; padding: 0px; border: 0px; font-variant-ligatures: no-common-ligatures; font-variant-numeric: inherit; font-variant-east-asian: inherit; font-variant-alternates: inherit; font-variant-position: inherit; font-variant-emoji: inherit; font-stretch: inherit; font-family: &amp;quot;Playfair Display&amp;quot;, serif; font-optical-sizing: inherit; font-size-adjust: inherit; font-kerning: inherit; font-feature-settings: inherit; font-variation-settings: inherit; vertical-align: initial; letter-spacing: 0.39px; color: rgb(15, 56, 80); background-color: rgb(255, 255, 255); line-height: 100%;&quot; class=&quot;title-lg&quot;&gt;&lt;font style=&quot;font-size: 17px;&quot;&gt;• Active Recall &amp;amp; Practice&lt;/font&gt;&lt;/h1&gt;&lt;div&gt;&lt;font style=&quot;font-size: 15px; line-height: 100%;&quot;&gt;(Flashcards, Adaptive Quizzes)&lt;/font&gt;&lt;/div&gt;&lt;div&gt;&lt;font style=&quot;font-size: 15px; line-height: 100%;&quot;&gt;&lt;h1 style=&quot;box-sizing: border-box; margin: 10px 0px 0px; padding: 0px; border: 0px; font-variant-ligatures: no-common-ligatures; font-variant-numeric: inherit; font-variant-east-asian: inherit; font-variant-alternates: inherit; font-variant-position: inherit; font-variant-emoji: inherit; font-stretch: inherit; font-family: &amp;quot;Playfair Display&amp;quot;, serif; font-optical-sizing: inherit; font-size-adjust: inherit; font-kerning: inherit; font-feature-settings: inherit; font-variation-settings: inherit; vertical-align: initial; letter-spacing: 0.39px; color: rgb(15, 56, 80); background-color: rgb(255, 255, 255); line-height: 100%;&quot; class=&quot;title-lg&quot;&gt;&lt;font style=&quot;font-size: 17px; line-height: 100%;&quot;&gt;• Study Planning &amp;amp; Focus&lt;/font&gt;&lt;/h1&gt;&lt;div style=&quot;font-size: 12px; line-height: 100%;&quot;&gt;&lt;font style=&quot;font-size: 15px; line-height: 100%;&quot;&gt;(Smart planner, Pomodoro)&lt;/font&gt;&lt;/div&gt;&lt;div&gt;&lt;font style=&quot;font-size: 15px;&quot;&gt;&lt;h1 style=&quot;box-sizing: border-box; margin: 10px 0px 0px; padding: 0px; border: 0px; font-variant-ligatures: no-common-ligatures; font-variant-numeric: inherit; font-variant-east-asian: inherit; font-variant-alternates: inherit; font-variant-position: inherit; font-variant-emoji: inherit; font-stretch: inherit; font-family: &amp;quot;Playfair Display&amp;quot;, serif; font-optical-sizing: inherit; font-size-adjust: inherit; font-kerning: inherit; font-feature-settings: inherit; font-variation-settings: inherit; vertical-align: initial; letter-spacing: 0.39px; color: rgb(15, 56, 80); background-color: rgb(255, 255, 255); line-height: 100%;&quot; class=&quot;title-lg&quot;&gt;&lt;font style=&quot;font-size: 17px; line-height: 100%;&quot;&gt;• Notes &amp;amp; Knowledgebase&lt;/font&gt;&lt;/h1&gt;&lt;div style=&quot;font-size: 12px; line-height: 100%;&quot;&gt;&lt;font style=&quot;font-size: 15px; line-height: 100%;&quot;&gt;(Linked notes, concept maps)&lt;/font&gt;&lt;/div&gt;&lt;div style=&quot;font-size: 12px; line-height: 100%;&quot;&gt;&lt;font style=&quot;font-size: 15px; line-height: 100%;&quot;&gt;&lt;h1 style=&quot;box-sizing: border-box; margin: 10px 0px 0px; padding: 0px; border: 0px; font-variant-ligatures: no-common-ligatures; font-variant-numeric: inherit; font-variant-east-asian: inherit; font-variant-alternates: inherit; font-variant-position: inherit; font-variant-emoji: inherit; font-stretch: inherit; font-family: &amp;quot;Playfair Display&amp;quot;, serif; font-optical-sizing: inherit; font-size-adjust: inherit; font-kerning: inherit; font-feature-settings: inherit; font-variation-settings: inherit; vertical-align: initial; letter-spacing: 0.39px; color: rgb(15, 56, 80); background-color: rgb(255, 255, 255); line-height: 30px;&quot; class=&quot;title-lg&quot;&gt;&lt;font style=&quot;font-size: 17px; line-height: 17px;&quot;&gt;• Multimodal Learning&lt;/font&gt;&lt;/h1&gt;&lt;div style=&quot;font-size: 12px; line-height: 12px;&quot;&gt;&lt;font style=&quot;font-size: 15px; line-height: 15px;&quot;&gt;(Lecture transcribing, OCR)&lt;/font&gt;&lt;/div&gt;&lt;div style=&quot;font-size: 12px; line-height: 12px;&quot;&gt;&lt;font style=&quot;font-size: 15px; line-height: 15px;&quot;&gt;&lt;h1 style=&quot;box-sizing: border-box; margin: 10px 0px 0px; padding: 0px; border: 0px; font-variant-ligatures: no-common-ligatures; font-variant-numeric: inherit; font-variant-east-asian: inherit; font-variant-alternates: inherit; font-variant-position: inherit; font-variant-emoji: inherit; font-stretch: inherit; font-family: &amp;quot;Playfair Display&amp;quot;, serif; font-optical-sizing: inherit; font-size-adjust: inherit; font-kerning: inherit; font-feature-settings: inherit; font-variation-settings: inherit; vertical-align: initial; letter-spacing: 0.39px; color: rgb(15, 56, 80); background-color: rgb(255, 255, 255); line-height: 30px;&quot; class=&quot;title-lg&quot;&gt;&lt;font style=&quot;font-size: 17px; line-height: 17px;&quot;&gt;• Personalisation&lt;/font&gt;&lt;/h1&gt;&lt;div style=&quot;font-size: 12px; line-height: 12px;&quot;&gt;&lt;font style=&quot;font-size: 15px; line-height: 15px;&quot;&gt;(Skill Graph, learning profile)&lt;/font&gt;&lt;/div&gt;&lt;div style=&quot;font-size: 12px; line-height: 12px;&quot;&gt;&lt;font style=&quot;font-size: 15px; line-height: 15px;&quot;&gt;&lt;h1 style=&quot;box-sizing: border-box; margin: 10px 0px 0px; padding: 0px; border: 0px; font-variant-ligatures: no-common-ligatures; font-variant-numeric: inherit; font-variant-east-asian: inherit; font-variant-alternates: inherit; font-variant-position: inherit; font-variant-emoji: inherit; font-stretch: inherit; font-family: &amp;quot;Playfair Display&amp;quot;, serif; font-optical-sizing: inherit; font-size-adjust: inherit; font-kerning: inherit; font-feature-settings: inherit; font-variation-settings: inherit; vertical-align: initial; letter-spacing: 0.39px; color: rgb(15, 56, 80); background-color: rgb(255, 255, 255); line-height: 30px;&quot; class=&quot;title-lg&quot;&gt;&lt;font style=&quot;font-size: 17px; line-height: 17px;&quot;&gt;• Safety &amp;amp; Privacy&lt;/font&gt;&lt;/h1&gt;&lt;div style=&quot;font-size: 12px; line-height: 12px;&quot;&gt;&lt;font style=&quot;font-size: 15px; line-height: 15px;&quot;&gt;(Plagiarism Checking, GDPR)&lt;/font&gt;&lt;/div&gt;&lt;div style=&quot;font-size: 12px; line-height: 12px;&quot;&gt;&lt;font style=&quot;font-size: 15px; line-height: 15px;&quot;&gt;&lt;br&gt;&lt;/font&gt;&lt;/div&gt;&lt;div style=&quot;font-size: 12px; line-height: 12px;&quot;&gt;&lt;font style=&quot;font-size: 15px; line-height: 15px;&quot;&gt;&lt;br&gt;&lt;/font&gt;&lt;/div&gt;&lt;div style=&quot;font-size: 12px; line-height: 12px;&quot;&gt;&lt;br&gt;&lt;/div&gt;&lt;/font&gt;&lt;/div&gt;&lt;/font&gt;&lt;/div&gt;&lt;/font&gt;&lt;/div&gt;&lt;/font&gt;&lt;/div&gt;&lt;/font&gt;&lt;/div&gt;&lt;/font&gt;&lt;/div&gt;&lt;/div&gt;" style="rounded=0;whiteSpace=wrap;html=1;align=left;fillColor=default;strokeColor=#82b366;" vertex="1" parent="1">
          <mxGeometry x="50" y="260" width="220" height="420" as="geometry" />
        </mxCell>
        <mxCell id="aCBa3Tje2mZpSBNY9Ict-4" value="&lt;div style=&quot;line-height: 100%;&quot;&gt;&lt;h1 style=&quot;box-sizing: border-box; margin: 10px 0px 0px; padding: 0px; border: 0px; font-variant-ligatures: no-common-ligatures; font-variant-numeric: inherit; font-variant-east-asian: inherit; font-variant-alternates: inherit; font-variant-position: inherit; font-variant-emoji: inherit; font-stretch: inherit; font-family: &amp;quot;Playfair Display&amp;quot;, serif; font-optical-sizing: inherit; font-size-adjust: inherit; font-kerning: inherit; font-feature-settings: inherit; font-variation-settings: inherit; vertical-align: initial; letter-spacing: 0.39px; color: rgb(15, 56, 80); line-height: 90%;&quot; class=&quot;title-lg&quot;&gt;&lt;font style=&quot;font-size: 17px; line-height: 100%; background-color: light-dark(#ffffff, var(--ge-dark-color, #121212));&quot;&gt;• Gamification&lt;/font&gt;&lt;/h1&gt;&lt;div&gt;&lt;font style=&quot;font-size: 15px; line-height: 100%; background-color: light-dark(#ffffff, var(--ge-dark-color, #121212));&quot;&gt;(Achievements, Streaks)&lt;/font&gt;&lt;/div&gt;&lt;div&gt;&lt;font&gt;&lt;h1 style=&quot;font-size: 17px; box-sizing: border-box; margin: 10px 0px 0px; padding: 0px; border: 0px; font-variant-ligatures: no-common-ligatures; font-variant-numeric: inherit; font-variant-east-asian: inherit; font-variant-alternates: inherit; font-variant-position: inherit; font-variant-emoji: inherit; font-stretch: inherit; font-family: &amp;quot;Playfair Display&amp;quot;, serif; font-optical-sizing: inherit; font-size-adjust: inherit; font-kerning: inherit; font-feature-settings: inherit; font-variation-settings: inherit; vertical-align: initial; letter-spacing: 0.39px; color: rgb(15, 56, 80); line-height: 100%;&quot; class=&quot;title-lg&quot;&gt;&lt;font style=&quot;font-size: 17px; background-color: light-dark(#ffffff, var(--ge-dark-color, #121212));&quot;&gt;• Community Hub&lt;/font&gt;&lt;/h1&gt;&lt;div&gt;&lt;font style=&quot;font-size: 15px; line-height: 100%; background-color: light-dark(#ffffff, var(--ge-dark-color, #121212));&quot;&gt;(Study rooms, Shared goals)&lt;/font&gt;&lt;/div&gt;&lt;div&gt;&lt;font style=&quot;font-size: 15px; line-height: 100%;&quot;&gt;&lt;h1 style=&quot;box-sizing: border-box; margin: 10px 0px 0px; padding: 0px; border: 0px; font-variant-ligatures: no-common-ligatures; font-variant-numeric: inherit; font-variant-east-asian: inherit; font-variant-alternates: inherit; font-variant-position: inherit; font-variant-emoji: inherit; font-stretch: inherit; font-family: &amp;quot;Playfair Display&amp;quot;, serif; font-optical-sizing: inherit; font-size-adjust: inherit; font-kerning: inherit; font-feature-settings: inherit; font-variation-settings: inherit; vertical-align: initial; letter-spacing: 0.39px; color: rgb(15, 56, 80); line-height: 100%;&quot; class=&quot;title-lg&quot;&gt;&lt;font style=&quot;font-size: 17px; line-height: 100%; background-color: light-dark(#ffffff, var(--ge-dark-color, #121212));&quot;&gt;• Productivity &amp;amp; Wellness&lt;/font&gt;&lt;/h1&gt;&lt;div style=&quot;font-size: 12px; line-height: 100%;&quot;&gt;&lt;font style=&quot;font-size: 15px; line-height: 100%; background-color: light-dark(#ffffff, var(--ge-dark-color, #121212));&quot;&gt;(Ambient sounds, stretching breaks)&lt;/font&gt;&lt;/div&gt;&lt;div&gt;&lt;font style=&quot;font-size: 15px;&quot;&gt;&lt;h1 style=&quot;box-sizing: border-box; margin: 10px 0px 0px; padding: 0px; border: 0px; font-variant-ligatures: no-common-ligatures; font-variant-numeric: inherit; font-variant-east-asian: inherit; font-variant-alternates: inherit; font-variant-position: inherit; font-variant-emoji: inherit; font-stretch: inherit; font-family: &amp;quot;Playfair Display&amp;quot;, serif; font-optical-sizing: inherit; font-size-adjust: inherit; font-kerning: inherit; font-feature-settings: inherit; font-variation-settings: inherit; vertical-align: initial; letter-spacing: 0.39px; color: rgb(15, 56, 80); line-height: 100%;&quot; class=&quot;title-lg&quot;&gt;&lt;font style=&quot;font-size: 17px; line-height: 100%; background-color: light-dark(#ffffff, var(--ge-dark-color, #121212));&quot;&gt;• Admin Portal&lt;/font&gt;&lt;/h1&gt;&lt;div style=&quot;font-size: 12px; line-height: 100%;&quot;&gt;&lt;font style=&quot;font-size: 15px; line-height: 100%; background-color: light-dark(#ffffff, var(--ge-dark-color, #121212));&quot;&gt;(Class spaces with roster sync)&lt;/font&gt;&lt;/div&gt;&lt;div style=&quot;font-size: 12px; line-height: 100%;&quot;&gt;&lt;font style=&quot;font-size: 15px; line-height: 100%;&quot;&gt;&lt;h1 style=&quot;box-sizing: border-box; margin: 10px 0px 0px; padding: 0px; border: 0px; font-variant-ligatures: no-common-ligatures; font-variant-numeric: inherit; font-variant-east-asian: inherit; font-variant-alternates: inherit; font-variant-position: inherit; font-variant-emoji: inherit; font-stretch: inherit; font-family: &amp;quot;Playfair Display&amp;quot;, serif; font-optical-sizing: inherit; font-size-adjust: inherit; font-kerning: inherit; font-feature-settings: inherit; font-variation-settings: inherit; vertical-align: initial; letter-spacing: 0.39px; color: rgb(15, 56, 80); line-height: 30px;&quot; class=&quot;title-lg&quot;&gt;&lt;span style=&quot;background-color: light-dark(#ffffff, var(--ge-dark-color, #121212));&quot;&gt;&lt;font style=&quot;font-size: 17px; line-height: 17px;&quot;&gt;• &lt;/font&gt;&lt;font style=&quot;font-size: 17px; line-height: 17px; background-color: light-dark(#ffffff, var(--ge-dark-color, #121212));&quot;&gt;Advanced Practicing&lt;/font&gt;&lt;/span&gt;&lt;/h1&gt;&lt;div style=&quot;font-size: 12px; line-height: 12px;&quot;&gt;&lt;font style=&quot;font-size: 15px; line-height: 15px; background-color: light-dark(#ffffff, var(--ge-dark-color, #121212));&quot;&gt;(Code sandboxes, Math scratchpad)&lt;/font&gt;&lt;/div&gt;&lt;div style=&quot;font-size: 12px; line-height: 12px;&quot;&gt;&lt;font style=&quot;font-size: 15px; line-height: 15px; background-color: light-dark(#ffffff, var(--ge-dark-color, #121212));&quot;&gt;&lt;br&gt;&lt;/font&gt;&lt;/div&gt;&lt;div style=&quot;font-size: 12px; line-height: 12px;&quot;&gt;&lt;font style=&quot;font-size: 15px; line-height: 15px; background-color: light-dark(#ffffff, var(--ge-dark-color, #121212));&quot;&gt;&lt;br&gt;&lt;/font&gt;&lt;/div&gt;&lt;div style=&quot;font-size: 12px; line-height: 12px;&quot;&gt;&lt;font style=&quot;font-size: 15px; line-height: 15px; background-color: light-dark(#ffffff, var(--ge-dark-color, #121212));&quot;&gt;&lt;br&gt;&lt;/font&gt;&lt;/div&gt;&lt;div style=&quot;font-size: 12px; line-height: 12px;&quot;&gt;&lt;font style=&quot;font-size: 15px; line-height: 15px; background-color: light-dark(#ffffff, var(--ge-dark-color, #121212));&quot;&gt;&lt;br&gt;&lt;/font&gt;&lt;/div&gt;&lt;div style=&quot;font-size: 12px; line-height: 12px;&quot;&gt;&lt;font style=&quot;font-size: 15px; line-height: 15px; background-color: light-dark(#ffffff, var(--ge-dark-color, #121212));&quot;&gt;&lt;br&gt;&lt;/font&gt;&lt;/div&gt;&lt;div style=&quot;font-size: 12px; line-height: 12px;&quot;&gt;&lt;font style=&quot;font-size: 15px; line-height: 15px; background-color: light-dark(#ffffff, var(--ge-dark-color, #121212));&quot;&gt;&lt;br&gt;&lt;/font&gt;&lt;/div&gt;&lt;div style=&quot;font-size: 12px; line-height: 12px;&quot;&gt;&lt;font style=&quot;font-size: 15px; line-height: 15px; background-color: light-dark(#ffffff, var(--ge-dark-color, #121212));&quot;&gt;&lt;br&gt;&lt;/font&gt;&lt;/div&gt;&lt;div style=&quot;font-size: 12px; line-height: 12px;&quot;&gt;&lt;font style=&quot;font-size: 15px; line-height: 15px; background-color: light-dark(#ffffff, var(--ge-dark-color, #121212));&quot;&gt;&lt;br&gt;&lt;/font&gt;&lt;/div&gt;&lt;div style=&quot;font-size: 12px; line-height: 12px;&quot;&gt;&lt;font style=&quot;font-size: 15px; line-height: 15px; background-color: light-dark(#ffffff, var(--ge-dark-color, #121212));&quot;&gt;&lt;br&gt;&lt;/font&gt;&lt;/div&gt;&lt;div style=&quot;font-size: 12px; line-height: 12px;&quot;&gt;&lt;br&gt;&lt;/div&gt;&lt;/font&gt;&lt;/div&gt;&lt;/font&gt;&lt;/div&gt;&lt;/font&gt;&lt;/div&gt;&lt;/font&gt;&lt;/div&gt;&lt;/div&gt;" style="rounded=0;whiteSpace=wrap;html=1;align=left;fillColor=default;strokeColor=#d6b656;" vertex="1" parent="1">
          <mxGeometry x="270" y="260" width="250" height="420" as="geometry" />
        </mxCell>
      </root>
    </mxGraphModel>
  </diagram>
</mxfile>
